<mxfile host="app.diagrams.net" agent="Mozilla/5.0 (Windows NT 10.0; Win64; x64) AppleWebKit/537.36 (KHTML, like Gecko) Chrome/131.0.0.0 Safari/537.36" version="24.8.3">
  <diagram name="Halaman-1" id="ZIRDh5C8BHUG3EzZ9cwm">
    <mxGraphModel dx="1050" dy="557" grid="1" gridSize="10" guides="1" tooltips="1" connect="1" arrows="1" fold="1" page="1" pageScale="1" pageWidth="827" pageHeight="1169" math="0" shadow="0">
      <root>
        <mxCell id="0" />
        <mxCell id="1" parent="0" />
        <mxCell id="2fAPVbP0b-OKAFYlJWuE-1" value="Loop" style="whiteSpace=wrap;strokeWidth=2;" vertex="1" parent="1">
          <mxGeometry x="82" y="650" width="917" height="318" as="geometry" />
        </mxCell>
        <mxCell id="2fAPVbP0b-OKAFYlJWuE-2" value="Start" style="whiteSpace=wrap;strokeWidth=2;" vertex="1" parent="1">
          <mxGeometry x="304" y="20" width="95" height="48" as="geometry" />
        </mxCell>
        <mxCell id="2fAPVbP0b-OKAFYlJWuE-3" value="Setup Function" style="whiteSpace=wrap;strokeWidth=2;" vertex="1" parent="1">
          <mxGeometry x="268" y="118" width="167" height="48" as="geometry" />
        </mxCell>
        <mxCell id="2fAPVbP0b-OKAFYlJWuE-4" value="Initialize LED pin" style="whiteSpace=wrap;strokeWidth=2;" vertex="1" parent="1">
          <mxGeometry x="20" y="217" width="181" height="48" as="geometry" />
        </mxCell>
        <mxCell id="2fAPVbP0b-OKAFYlJWuE-5" value="Start Serial Monitor" style="whiteSpace=wrap;strokeWidth=2;" vertex="1" parent="1">
          <mxGeometry x="251" y="217" width="200" height="48" as="geometry" />
        </mxCell>
        <mxCell id="2fAPVbP0b-OKAFYlJWuE-6" value="WiFiManager autoConnect" style="whiteSpace=wrap;strokeWidth=2;" vertex="1" parent="1">
          <mxGeometry x="501" y="217" width="247" height="48" as="geometry" />
        </mxCell>
        <mxCell id="2fAPVbP0b-OKAFYlJWuE-7" value="Display IP Address" style="whiteSpace=wrap;strokeWidth=2;" vertex="1" parent="1">
          <mxGeometry x="320" y="338" width="188" height="48" as="geometry" />
        </mxCell>
        <mxCell id="2fAPVbP0b-OKAFYlJWuE-8" value="Reset ESP" style="whiteSpace=wrap;strokeWidth=2;" vertex="1" parent="1">
          <mxGeometry x="665" y="338" width="129" height="48" as="geometry" />
        </mxCell>
        <mxCell id="2fAPVbP0b-OKAFYlJWuE-9" value="Start Web Server" style="whiteSpace=wrap;strokeWidth=2;" vertex="1" parent="1">
          <mxGeometry x="323" y="436" width="182" height="48" as="geometry" />
        </mxCell>
        <mxCell id="2fAPVbP0b-OKAFYlJWuE-10" value="Define Root Endpoint" style="whiteSpace=wrap;strokeWidth=2;" vertex="1" parent="1">
          <mxGeometry x="50" y="543" width="212" height="48" as="geometry" />
        </mxCell>
        <mxCell id="2fAPVbP0b-OKAFYlJWuE-11" value="Define LED Control Endpoint" style="whiteSpace=wrap;strokeWidth=2;" vertex="1" parent="1">
          <mxGeometry x="312" y="534" width="195" height="66" as="geometry" />
        </mxCell>
        <mxCell id="2fAPVbP0b-OKAFYlJWuE-12" value="Server Begin" style="whiteSpace=wrap;strokeWidth=2;" vertex="1" parent="1">
          <mxGeometry x="557" y="543" width="149" height="48" as="geometry" />
        </mxCell>
        <mxCell id="2fAPVbP0b-OKAFYlJWuE-13" value="Handle Client Requests" style="whiteSpace=wrap;strokeWidth=2;" vertex="1" parent="1">
          <mxGeometry x="519" y="675" width="225" height="48" as="geometry" />
        </mxCell>
        <mxCell id="2fAPVbP0b-OKAFYlJWuE-14" value="Check Endpoint" style="whiteSpace=wrap;strokeWidth=2;" vertex="1" parent="1">
          <mxGeometry x="546" y="774" width="171" height="48" as="geometry" />
        </mxCell>
        <mxCell id="2fAPVbP0b-OKAFYlJWuE-15" value="Serve HTML Interface" style="whiteSpace=wrap;strokeWidth=2;" vertex="1" parent="1">
          <mxGeometry x="117" y="895" width="213" height="48" as="geometry" />
        </mxCell>
        <mxCell id="2fAPVbP0b-OKAFYlJWuE-16" value="Turn LED ON" style="whiteSpace=wrap;strokeWidth=2;" vertex="1" parent="1">
          <mxGeometry x="380" y="895" width="149" height="48" as="geometry" />
        </mxCell>
        <mxCell id="2fAPVbP0b-OKAFYlJWuE-17" value="Turn LED OFF" style="whiteSpace=wrap;strokeWidth=2;" vertex="1" parent="1">
          <mxGeometry x="578" y="895" width="156" height="48" as="geometry" />
        </mxCell>
        <mxCell id="2fAPVbP0b-OKAFYlJWuE-18" value="Return 400 Error" style="whiteSpace=wrap;strokeWidth=2;" vertex="1" parent="1">
          <mxGeometry x="784" y="895" width="179" height="48" as="geometry" />
        </mxCell>
        <mxCell id="2fAPVbP0b-OKAFYlJWuE-19" value="" style="curved=1;startArrow=none;endArrow=block;exitX=0.5;exitY=1.01;entryX=0.5;entryY=0.01;rounded=0;" edge="1" parent="1" source="2fAPVbP0b-OKAFYlJWuE-2" target="2fAPVbP0b-OKAFYlJWuE-3">
          <mxGeometry relative="1" as="geometry">
            <Array as="points" />
          </mxGeometry>
        </mxCell>
        <mxCell id="2fAPVbP0b-OKAFYlJWuE-20" value="" style="curved=1;startArrow=none;endArrow=block;exitX=0;exitY=0.87;entryX=0.5;entryY=0;rounded=0;" edge="1" parent="1" source="2fAPVbP0b-OKAFYlJWuE-3" target="2fAPVbP0b-OKAFYlJWuE-4">
          <mxGeometry relative="1" as="geometry">
            <Array as="points">
              <mxPoint x="111" y="192" />
            </Array>
          </mxGeometry>
        </mxCell>
        <mxCell id="2fAPVbP0b-OKAFYlJWuE-21" value="" style="curved=1;startArrow=none;endArrow=block;exitX=0.5;exitY=1.02;entryX=0.5;entryY=0;rounded=0;" edge="1" parent="1" source="2fAPVbP0b-OKAFYlJWuE-3" target="2fAPVbP0b-OKAFYlJWuE-5">
          <mxGeometry relative="1" as="geometry">
            <Array as="points" />
          </mxGeometry>
        </mxCell>
        <mxCell id="2fAPVbP0b-OKAFYlJWuE-22" value="" style="curved=1;startArrow=none;endArrow=block;exitX=1;exitY=0.83;entryX=0.5;entryY=0;rounded=0;" edge="1" parent="1" source="2fAPVbP0b-OKAFYlJWuE-3" target="2fAPVbP0b-OKAFYlJWuE-6">
          <mxGeometry relative="1" as="geometry">
            <Array as="points">
              <mxPoint x="625" y="192" />
            </Array>
          </mxGeometry>
        </mxCell>
        <mxCell id="2fAPVbP0b-OKAFYlJWuE-23" value="Connected" style="curved=1;startArrow=none;endArrow=block;exitX=0.16;exitY=1;entryX=0.5;entryY=-0.01;rounded=0;" edge="1" parent="1" source="2fAPVbP0b-OKAFYlJWuE-6" target="2fAPVbP0b-OKAFYlJWuE-7">
          <mxGeometry relative="1" as="geometry">
            <Array as="points">
              <mxPoint x="414" y="301" />
            </Array>
          </mxGeometry>
        </mxCell>
        <mxCell id="2fAPVbP0b-OKAFYlJWuE-24" value="Failed" style="curved=1;startArrow=none;endArrow=block;exitX=0.67;exitY=1;entryX=0.5;entryY=-0.01;rounded=0;" edge="1" parent="1" source="2fAPVbP0b-OKAFYlJWuE-6" target="2fAPVbP0b-OKAFYlJWuE-8">
          <mxGeometry relative="1" as="geometry">
            <Array as="points">
              <mxPoint x="729" y="301" />
            </Array>
          </mxGeometry>
        </mxCell>
        <mxCell id="2fAPVbP0b-OKAFYlJWuE-25" value="" style="curved=1;startArrow=none;endArrow=block;exitX=0.5;exitY=1;entryX=0.5;entryY=0;rounded=0;" edge="1" parent="1" source="2fAPVbP0b-OKAFYlJWuE-7" target="2fAPVbP0b-OKAFYlJWuE-9">
          <mxGeometry relative="1" as="geometry">
            <Array as="points" />
          </mxGeometry>
        </mxCell>
        <mxCell id="2fAPVbP0b-OKAFYlJWuE-26" value="" style="curved=1;startArrow=none;endArrow=block;exitX=0;exitY=0.87;entryX=0.5;entryY=0;rounded=0;" edge="1" parent="1" source="2fAPVbP0b-OKAFYlJWuE-9" target="2fAPVbP0b-OKAFYlJWuE-10">
          <mxGeometry relative="1" as="geometry">
            <Array as="points">
              <mxPoint x="156" y="509" />
            </Array>
          </mxGeometry>
        </mxCell>
        <mxCell id="2fAPVbP0b-OKAFYlJWuE-27" value="" style="curved=1;startArrow=none;endArrow=block;exitX=0.49;exitY=1.01;entryX=0.5;entryY=0.01;rounded=0;" edge="1" parent="1" source="2fAPVbP0b-OKAFYlJWuE-9" target="2fAPVbP0b-OKAFYlJWuE-11">
          <mxGeometry relative="1" as="geometry">
            <Array as="points">
              <mxPoint x="410" y="509" />
            </Array>
          </mxGeometry>
        </mxCell>
        <mxCell id="2fAPVbP0b-OKAFYlJWuE-28" value="" style="curved=1;startArrow=none;endArrow=block;exitX=1;exitY=0.93;entryX=0.5;entryY=0;rounded=0;" edge="1" parent="1" source="2fAPVbP0b-OKAFYlJWuE-9" target="2fAPVbP0b-OKAFYlJWuE-12">
          <mxGeometry relative="1" as="geometry">
            <Array as="points">
              <mxPoint x="632" y="509" />
            </Array>
          </mxGeometry>
        </mxCell>
        <mxCell id="2fAPVbP0b-OKAFYlJWuE-29" value="" style="curved=1;startArrow=none;endArrow=block;exitX=0.5;exitY=1.02;entryX=0.5;entryY=0;rounded=0;" edge="1" parent="1" source="2fAPVbP0b-OKAFYlJWuE-13" target="2fAPVbP0b-OKAFYlJWuE-14">
          <mxGeometry relative="1" as="geometry">
            <Array as="points" />
          </mxGeometry>
        </mxCell>
        <mxCell id="2fAPVbP0b-OKAFYlJWuE-30" value="Root" style="curved=1;startArrow=none;endArrow=block;exitX=0;exitY=0.76;entryX=0.5;entryY=-0.01;rounded=0;" edge="1" parent="1" source="2fAPVbP0b-OKAFYlJWuE-14" target="2fAPVbP0b-OKAFYlJWuE-15">
          <mxGeometry relative="1" as="geometry">
            <Array as="points">
              <mxPoint x="223" y="858" />
            </Array>
          </mxGeometry>
        </mxCell>
        <mxCell id="2fAPVbP0b-OKAFYlJWuE-31" value="/led?state=on" style="curved=1;startArrow=none;endArrow=block;exitX=0.09;exitY=1;entryX=0.5;entryY=-0.01;rounded=0;" edge="1" parent="1" source="2fAPVbP0b-OKAFYlJWuE-14" target="2fAPVbP0b-OKAFYlJWuE-16">
          <mxGeometry relative="1" as="geometry">
            <Array as="points">
              <mxPoint x="454" y="858" />
            </Array>
          </mxGeometry>
        </mxCell>
        <mxCell id="2fAPVbP0b-OKAFYlJWuE-32" value="/led?state=off" style="curved=1;startArrow=none;endArrow=block;exitX=0.56;exitY=1;entryX=0.5;entryY=-0.01;rounded=0;" edge="1" parent="1" source="2fAPVbP0b-OKAFYlJWuE-14" target="2fAPVbP0b-OKAFYlJWuE-17">
          <mxGeometry relative="1" as="geometry">
            <Array as="points">
              <mxPoint x="656" y="858" />
            </Array>
          </mxGeometry>
        </mxCell>
        <mxCell id="2fAPVbP0b-OKAFYlJWuE-33" value="Invalid State" style="curved=1;startArrow=none;endArrow=block;exitX=1;exitY=0.95;entryX=0.5;entryY=-0.01;rounded=0;" edge="1" parent="1" source="2fAPVbP0b-OKAFYlJWuE-14" target="2fAPVbP0b-OKAFYlJWuE-18">
          <mxGeometry relative="1" as="geometry">
            <Array as="points">
              <mxPoint x="874" y="858" />
            </Array>
          </mxGeometry>
        </mxCell>
        <mxCell id="2fAPVbP0b-OKAFYlJWuE-34" value="" style="curved=1;startArrow=none;endArrow=block;rounded=0;" edge="1" parent="1" source="2fAPVbP0b-OKAFYlJWuE-12" target="2fAPVbP0b-OKAFYlJWuE-1">
          <mxGeometry relative="1" as="geometry">
            <Array as="points" />
          </mxGeometry>
        </mxCell>
        <mxCell id="2fAPVbP0b-OKAFYlJWuE-35" value="" style="curved=1;startArrow=none;endArrow=block;rounded=0;" edge="1" parent="1" source="2fAPVbP0b-OKAFYlJWuE-1" target="2fAPVbP0b-OKAFYlJWuE-13">
          <mxGeometry relative="1" as="geometry">
            <Array as="points" />
          </mxGeometry>
        </mxCell>
      </root>
    </mxGraphModel>
  </diagram>
</mxfile>
